<?xml version="1.0" encoding="iso-8859-1"?>
<!-- Generator: Adobe Illustrator 19.0.0, SVG Export Plug-In . SVG Version: 6.00 Build 0)  -->
<svg version="1.1" id="Capa_1" xmlns="http://www.w3.org/2000/svg" xmlns:xlink="http://www.w3.org/1999/xlink" x="0px" y="0px"
	 viewBox="0 0 507.657 507.657" style="enable-background:new 0 0 507.657 507.657;" xml:space="preserve">
<g>
	<g>
		<g>
			<path d="M196.699,436.261c-0.549-0.603-1.079-1.216-1.618-1.819c-0.859-0.969-1.673-1.838-2.569-2.88
				c-5.568-3.118-10.953-6.473-16.256-9.947c-1.472-0.96-2.917-1.929-4.361-2.917c-5.285-3.611-10.469-7.333-15.461-11.282
				c-1.298-1.033-2.523-2.121-3.803-3.173c-3.739-3.072-7.378-6.226-10.935-9.481c-1.81-1.655-3.639-3.301-5.403-5.001
				c-3.922-3.785-7.726-7.68-11.401-11.685c-2.158-2.341-4.215-4.754-6.281-7.159c-1.856-2.176-3.666-4.389-5.458-6.619
				c-4.16-5.166-8.091-10.469-11.849-15.899c-0.795-1.161-1.637-2.295-2.414-3.474c-2.423-3.621-4.736-7.296-6.976-11.017
				c-0.311-0.53-0.603-1.061-0.914-1.582c-14.4-24.311-25.006-50.67-31.323-78.263c-16.731,1.801-33.207,5.211-49.079,10.185
				L0,267.566l3.346,10.597c33.481,106.13,124.928,182.482,227.237,192.622l-24.969-25.024
				C202.715,442.853,199.753,439.662,196.699,436.261z"/>
			<path d="M75.988,242.424c7.378,37.065,22.592,71.433,44.178,101.074c0.046,0.064,0.091,0.137,0.146,0.21
				c2.551,3.493,5.202,6.903,7.927,10.267c0.466,0.576,0.96,1.152,1.435,1.728c7.296,8.832,15.223,17.134,23.68,24.933
				c1.883,1.737,3.767,3.474,5.714,5.166c0.823,0.704,1.673,1.381,2.496,2.085c-0.978-1.719-1.847-3.493-2.789-5.23
				c-0.832-1.545-1.673-3.081-2.469-4.635c-1.536-2.971-3.008-5.97-4.434-8.987c-0.475-1.015-0.933-2.03-1.399-3.045
				c-31.909-69.943-33.454-151.36-1.664-223.634c-17.737-9.563-36.517-16.987-55.927-22.117l-10.734-2.843l-2.816,10.743
				c-10.002,38.162-10.752,76.891-3.584,113.673C75.805,242.031,75.942,242.196,75.988,242.424z"/>
			<path d="M363.07,152.821c1.061,2.706,2.094,5.413,3.063,8.137c0.439,1.253,0.841,2.505,1.262,3.758
				c15.433,45.522,18.386,93.678,9.472,139.73c-0.055,0.293-0.119,0.594-0.183,0.887c-0.805,4.087-1.664,8.165-2.661,12.224
				c-0.037,0.146-0.082,0.302-0.119,0.448c-1.618,6.574-3.511,13.083-5.623,19.529c-0.64,1.966-1.234,3.941-1.92,5.897
				c-0.658,1.865-1.39,3.712-2.094,5.568c-1.106,2.935-2.222,5.861-3.429,8.768c-0.631,1.499-1.289,2.99-1.938,4.48
				c-1.463,3.355-2.999,6.693-4.608,10.002c-0.521,1.079-1.051,2.158-1.591,3.237c-2.011,3.995-4.123,7.954-6.336,11.877
				c-0.101,0.174-0.183,0.357-0.283,0.53c0.823-0.695,1.664-1.362,2.478-2.066c1.975-1.719,3.886-3.483,5.815-5.257
				c8.411-7.762,16.311-16.037,23.57-24.832c0.494-0.594,0.997-1.179,1.49-1.783c2.715-3.346,5.358-6.757,7.899-10.24
				c0.055-0.082,0.11-0.155,0.165-0.229c21.577-29.641,36.791-64,44.169-101.065c0.037-0.21,0.174-0.375,0.229-0.576
				c7.177-36.8,6.437-75.538-3.575-113.71l-2.816-10.743l-10.734,2.843c-19.419,5.129-38.19,12.562-55.936,22.126
				c0.576,1.298,1.042,2.633,1.6,3.941C361.342,148.469,362.22,150.645,363.07,152.821z"/>
			<path d="M296.104,425.453c1.92-2.103,3.895-4.325,5.998-6.775c0.119-0.137,0.238-0.283,0.357-0.421
				c8.018-9.362,15.25-19.209,21.723-29.431c0.247-0.402,0.494-0.795,0.741-1.189c6.153-9.847,11.566-20.05,16.274-30.519
				c0.521-1.152,1.006-2.322,1.509-3.483c1.691-3.931,3.273-7.899,4.763-11.904c0.512-1.38,1.07-2.761,1.563-4.16
				c1.591-4.489,3.008-9.024,4.343-13.595c0.704-2.432,1.335-4.873,1.966-7.323c0.613-2.331,1.17-4.681,1.71-7.031
				c2.359-10.377,4.105-20.873,5.166-31.433c0.082-0.795,0.155-1.591,0.229-2.386c1.061-11.712,1.344-23.488,0.795-35.227
				c-0.009-0.201-0.018-0.402-0.027-0.603c-0.567-11.621-1.938-23.205-4.078-34.67c-0.192-1.006-0.384-2.011-0.585-3.017
				c-2.011-10.149-4.69-20.187-7.945-30.08c-0.914-2.761-1.865-5.504-2.88-8.247c-0.768-2.094-1.527-4.187-2.35-6.263
				c-1.865-4.663-3.858-9.307-6.025-13.897c-12.16-25.929-28.891-50.231-50.249-71.634l-35.227-35.291l-35.218,35.291
				c-27.794,27.849-47.799,60.608-60.023,95.506c-0.101,0.274-0.192,0.558-0.293,0.832c-19.895,57.445-18.697,120.64,3.52,177.417
				c0.603,1.527,1.198,3.054,1.829,4.562c1.179,2.862,2.395,5.705,3.685,8.53c1.435,3.109,2.944,6.181,4.498,9.234
				c1.399,2.752,2.862,5.477,4.37,8.192c1.655,2.981,3.355,5.952,5.147,8.869c1.061,1.755,2.13,3.493,3.246,5.221
				c2.789,4.334,5.669,8.631,8.741,12.818c0.439,0.603,0.923,1.179,1.371,1.783c2.935,3.913,5.998,7.753,9.17,11.529
				c1.554,1.847,3.109,3.694,4.727,5.513c0.503,0.567,1.024,1.161,1.518,1.71c2.752,3.035,5.568,6.025,8.494,8.96l35.218,35.291
				l35.227-35.291C291.505,430.427,293.809,427.94,296.104,425.453z"/>
			<path d="M497.061,264.247c-15.854-4.965-32.329-8.375-49.079-10.185c-6.327,27.648-16.969,54.08-31.415,78.427
				c-0.265,0.448-0.521,0.905-0.795,1.353c-2.258,3.758-4.59,7.47-7.031,11.127c-0.722,1.088-1.499,2.139-2.24,3.209
				c-3.803,5.522-7.799,10.907-12.023,16.155c-1.783,2.222-3.584,4.416-5.431,6.574c-2.066,2.414-4.123,4.818-6.281,7.168
				c-3.685,4.014-7.497,7.918-11.429,11.712c-1.737,1.673-3.538,3.301-5.33,4.928c-3.602,3.31-7.305,6.519-11.09,9.627
				c-1.234,1.006-2.405,2.057-3.657,3.045c-5.029,3.977-10.267,7.744-15.598,11.383c-1.371,0.933-2.752,1.865-4.151,2.77
				c-5.339,3.502-10.761,6.894-16.375,10.039c-0.037,0.037-0.064,0.064-0.101,0.101c-1.829,2.112-3.685,4.215-5.595,6.281
				c-2.523,2.761-4.974,5.367-7.397,7.799l-24.978,25.024c102.318-10.149,193.765-86.491,227.246-192.622l3.346-10.597
				L497.061,264.247z"/>
		</g>
	</g>
</g>
<g>
</g>
<g>
</g>
<g>
</g>
<g>
</g>
<g>
</g>
<g>
</g>
<g>
</g>
<g>
</g>
<g>
</g>
<g>
</g>
<g>
</g>
<g>
</g>
<g>
</g>
<g>
</g>
<g>
</g>
</svg>
