<?xml version="1.0" encoding="iso-8859-1"?>
<!-- Generator: Adobe Illustrator 16.0.0, SVG Export Plug-In . SVG Version: 6.00 Build 0)  -->
<!DOCTYPE svg PUBLIC "-//W3C//DTD SVG 1.1//EN" "http://www.w3.org/Graphics/SVG/1.1/DTD/svg11.dtd">
<svg version="1.1" id="Capa_1" xmlns="http://www.w3.org/2000/svg" xmlns:xlink="http://www.w3.org/1999/xlink" x="0px" y="0px"
	 width="424.51px" height="424.51px" viewBox="0 0 424.51 424.51" style="enable-background:new 0 0 424.51 424.51;"
	 xml:space="preserve">
<g>
	<path d="M351.81,234.287c-0.73-0.442-1.475-0.875-2.229-1.301c-25.166-14.188-49.4-20.809-70.436-23.282
		c13.457-3.164,29.758-7.253,49.549-12.491c61.768-16.349,67.49-90.891,67.49-90.891s-49.541-30.862-97.312-2.629
		c-24.871,14.698-42.721,32.379-55.377,49.355c3.985-13.234,8.594-29.396,13.954-49.155c0.261-0.962,0.503-1.922,0.728-2.875
		c12.297-52.468-31.703-90.316-43.076-99.084C213.447,0.66,212.483,0,212.483,0s-0.453,0.242-1.272,0.723
		c-7.928,4.674-50.177,31.952-49.664,82.239c0.294,28.889,6.68,53.186,15.054,72.637c-7.964-8.471-17.497-18.353-28.917-29.925
		c-2.158-2.185-4.381-4.431-6.673-6.739c-0.706-0.707-1.415-1.397-2.128-2.067c-34.764-32.634-81.646-21.38-101.184-14.566
		c-0.239,0.083-0.474,0.165-0.703,0.247c-2.614,0.928-4.701,1.76-6.142,2.366c-0.426,0.181-0.799,0.34-1.11,0.478
		c-0.781,0.341-1.192,0.538-1.192,0.538s-0.058,1.724,0.09,4.716c0.708,14.148,6.052,56.662,44.06,79.577
		c0.73,0.44,1.474,0.874,2.229,1.3c25.165,14.188,49.4,20.808,70.434,23.281c-13.457,3.165-29.757,7.254-49.549,12.491
		c-0.964,0.257-1.915,0.526-2.854,0.81c-49.711,15.019-61.527,68.521-64.027,85.127c-0.472,3.133-0.61,4.953-0.61,4.953
		s0.436,0.271,1.263,0.74c0.416,0.235,0.927,0.518,1.534,0.842c0.403,0.215,0.848,0.448,1.333,0.697
		c12.364,6.336,50.586,22.453,88.703,2.83c1.496-0.771,2.988-1.596,4.481-2.479c24.871-14.699,42.721-32.379,55.378-49.354
		c-3.987,13.233-8.595,29.396-13.955,49.155c-0.261,0.963-0.503,1.922-0.727,2.875c-7.114,30.353,4.613,55.811,17.964,73.579
		c0.222,0.293,0.443,0.583,0.666,0.874c0.903,1.179,1.81,2.322,2.721,3.432c0.92,1.123,1.841,2.207,2.758,3.256
		c2.68,3.062,5.322,5.807,7.787,8.202c2.541,2.467,4.888,4.562,6.906,6.273c0.285,0.242,0.564,0.477,0.835,0.703
		c0.746,0.622,1.444,1.191,2.073,1.693c0.497,0.396,0.953,0.752,1.367,1.072c1.654,1.271,2.617,1.933,2.617,1.933
		s0.453-0.242,1.272-0.723c7.928-4.674,50.176-31.952,49.664-82.239c-0.295-28.89-6.681-53.187-15.056-72.637
		c9.47,10.069,21.161,22.144,35.593,36.663c0.705,0.707,1.414,1.397,2.127,2.068c18.572,17.437,40.609,22.344,60.084,22.092
		c17.975-0.23,33.773-4.855,42.654-8.076c2.221-0.807,4.008-1.523,5.291-2.062c0.426-0.181,0.799-0.341,1.109-0.478
		c0.781-0.341,1.193-0.539,1.193-0.539s0.057-1.724-0.092-4.716C395.161,299.714,389.817,257.201,351.81,234.287z M223.19,231.193
		h-21.869l-10.935-18.938l10.935-18.939h21.869l10.934,18.939L223.19,231.193z"/>
</g>
<g>
</g>
<g>
</g>
<g>
</g>
<g>
</g>
<g>
</g>
<g>
</g>
<g>
</g>
<g>
</g>
<g>
</g>
<g>
</g>
<g>
</g>
<g>
</g>
<g>
</g>
<g>
</g>
<g>
</g>
</svg>
